<svg width="23" height="17" viewBox="0 0 23 17" fill="none" xmlns="http://www.w3.org/2000/svg">
<path d="M1.00026 12.4363L0.000256836 12.4363L1.00026 12.4363ZM1 3.43644L2 3.43642L1 3.43644ZM12.9999 15.8362C13.5522 15.8362 13.9999 15.3885 13.9999 14.8362C13.9999 14.2839 13.5522 13.8362 12.9999 13.8362V15.8362ZM20.1995 3.43579L19.1995 3.43579V3.4358L20.1995 3.43579ZM19.1995 7.63639C19.1995 8.18867 19.6473 8.63638 20.1996 8.63638C20.7518 8.63637 21.1995 8.18865 21.1995 7.63637L19.1995 7.63639ZM1.59954 4.23623C1.04725 4.23623 0.599538 4.68394 0.599538 5.23623C0.599538 5.78851 1.04725 6.23623 1.59954 6.23623V4.23623ZM19.5995 6.23623C20.1518 6.23623 20.5995 5.78851 20.5995 5.23623C20.5995 4.68394 20.1518 4.23623 19.5995 4.23623V6.23623ZM17.7933 15.3565C17.7933 15.9088 18.241 16.3565 18.7933 16.3565C19.3456 16.3565 19.7933 15.9088 19.7933 15.3565L17.7933 15.3565ZM19.7933 10.3041C19.7933 9.75186 19.3456 9.30414 18.7933 9.30414C18.241 9.30414 17.7933 9.75186 17.7933 10.3041L19.7933 10.3041ZM16.2671 11.8303C15.7148 11.8303 15.2671 12.2781 15.2671 12.8303C15.2671 13.3826 15.7148 13.8303 16.2671 13.8303V11.8303ZM21.3195 13.8303C21.8718 13.8303 22.3195 13.3826 22.3195 12.8303C22.3195 12.2781 21.8718 11.8303 21.3195 11.8303V13.8303ZM3.4 2.03638H17.7994V0.036377H3.4V2.03638ZM2.00026 12.4362L2 3.43642L0 3.43647L0.000256836 12.4363L2.00026 12.4362ZM12.9999 13.8362H3.40026V15.8362H12.9999V13.8362ZM19.1995 3.4358L19.1995 7.63639L21.1995 7.63637L21.1995 3.43578L19.1995 3.4358ZM3.4 0.036377C1.52219 0.036377 -5.36442e-05 1.55867 0 3.43647L2 3.43642C1.99998 2.6632 2.62679 2.03638 3.4 2.03638V0.036377ZM17.7994 2.03638C18.573 2.03638 19.1995 2.66291 19.1995 3.43579L21.1995 3.4358C21.1995 1.55764 19.6769 0.036377 17.7994 0.036377V2.03638ZM0.000256836 12.4363C0.000310421 14.314 1.52253 15.8362 3.40026 15.8362V13.8362C2.62707 13.8362 2.00028 13.2094 2.00026 12.4362L0.000256836 12.4363ZM1.59954 6.23623H19.5995V4.23623H1.59954V6.23623ZM19.7933 15.3565V12.8303L17.7933 12.8303V15.3565L19.7933 15.3565ZM19.7933 12.8303V10.3041L17.7933 10.3041V12.8303L19.7933 12.8303ZM16.2671 13.8303H18.7933V11.8303H16.2671V13.8303ZM18.7933 13.8303H21.3195V11.8303H18.7933V13.8303Z" fill="white"/>
</svg>
