<svg width="46" height="47" viewBox="0 0 46 47" fill="none" xmlns="http://www.w3.org/2000/svg">
<circle cx="22.958" cy="23.6219" r="22.8711" fill="#5BBA6F"/>
<path fill-rule="evenodd" clip-rule="evenodd" d="M19.8204 13.6218C19.8656 13.6219 19.9115 13.6219 19.958 13.6219L27.1993 13.6219C28.0043 13.6219 28.6686 13.6219 29.2098 13.6661C29.7719 13.712 30.2886 13.8106 30.774 14.0579C31.5266 14.4413 32.1385 15.0533 32.522 15.8059C32.7693 16.2913 32.8679 16.808 32.9138 17.3701C32.958 17.9112 32.958 18.5756 32.958 19.3806V27.8632C32.958 28.6682 32.958 29.3325 32.9138 29.8737C32.8679 30.4358 32.7693 30.9525 32.522 31.4378C32.1385 32.1905 31.5266 32.8024 30.774 33.1859C30.2886 33.4332 29.7719 33.5318 29.2098 33.5777C28.6686 33.6219 28.0043 33.6219 27.1993 33.6219H19.958C19.9115 33.6219 19.8656 33.6219 19.8204 33.6219C19.025 33.6224 18.4344 33.6227 17.9227 33.4856C16.5424 33.1157 15.4642 32.0375 15.0943 30.6572C14.9572 30.1455 14.9575 29.5548 14.958 28.7595C14.958 28.7143 14.958 28.6684 14.958 28.6219C14.958 28.0696 15.4057 27.6219 15.958 27.6219C16.5103 27.6219 16.958 28.0696 16.958 28.6219C16.958 29.6162 16.9666 29.9172 17.0262 30.1395C17.2111 30.8297 17.7502 31.3688 18.4404 31.5537C18.6626 31.6133 18.9637 31.6219 19.958 31.6219H27.158C28.0146 31.6219 28.5969 31.6211 29.047 31.5843C29.4854 31.5485 29.7096 31.4836 29.866 31.4039C30.2423 31.2121 30.5483 30.9062 30.74 30.5299C30.8197 30.3735 30.8846 30.1493 30.9205 29.7108C30.9572 29.2608 30.958 28.6785 30.958 27.8219V19.4219C30.958 18.5653 30.9572 17.983 30.9205 17.5329C30.8846 17.0945 30.8197 16.8703 30.74 16.7139C30.5483 16.3376 30.2423 16.0316 29.866 15.8399C29.7096 15.7602 29.4854 15.6952 29.047 15.6594C28.5969 15.6227 28.0146 15.6219 27.158 15.6219H19.958C18.9637 15.6219 18.6626 15.6305 18.4404 15.69C17.7502 15.875 17.2111 16.4141 17.0262 17.1042C16.9666 17.3265 16.958 17.6275 16.958 18.6219C16.958 19.1742 16.5103 19.6219 15.958 19.6219C15.4057 19.6219 14.958 19.1742 14.958 18.6219C14.958 18.5753 14.958 18.5295 14.958 18.4843C14.9575 17.6889 14.9572 17.0983 15.0943 16.5866C15.4642 15.2062 16.5424 14.128 17.9227 13.7582C18.4344 13.6211 19.025 13.6214 19.8204 13.6218ZM22.2509 18.9148C22.6414 18.5242 23.2746 18.5242 23.6651 18.9148L27.6651 22.9148C28.0556 23.3053 28.0556 23.9385 27.6651 24.329L23.6651 28.329C23.2746 28.7195 22.6414 28.7195 22.2509 28.329C21.8604 27.9385 21.8604 27.3053 22.2509 26.9148L24.5438 24.6219H13.958C13.4057 24.6219 12.958 24.1742 12.958 23.6219C12.958 23.0696 13.4057 22.6219 13.958 22.6219H24.5438L22.2509 20.329C21.8604 19.9385 21.8604 19.3053 22.2509 18.9148Z" fill="#3FA34D"/>
</svg>
